<mxfile host="app.diagrams.net" modified="2023-06-05T10:31:42.832Z" agent="Mozilla/5.0 (Macintosh; Intel Mac OS X 10_15_7) AppleWebKit/537.36 (KHTML, like Gecko) Chrome/113.0.0.0 Safari/537.36" version="21.3.7" etag="fmIla0FX3Vg2tSDoeLhM" type="github">
  <diagram name="第 1 页" id="u56jgiqpzqXcOl6Io8nD">
    <mxGraphModel>
      <root>
        <mxCell id="0" />
        <mxCell id="1" parent="0" />
      </root>
    </mxGraphModel>
  </diagram>
</mxfile>
